<mxfile host="app.diagrams.net" modified="2023-04-10T22:10:25.343Z" agent="Mozilla/5.0 (Windows NT 10.0; Win64; x64) AppleWebKit/537.36 (KHTML, like Gecko) Chrome/111.0.0.0 Safari/537.36" etag="d4scMKyrN0Nw5GuPeOwu" version="21.1.5" type="google">
  <diagram name="PÃ¡gina-1" id="W_sb84xy5yyjvHq2nauT">
    <mxGraphModel grid="1" page="1" gridSize="10" guides="1" tooltips="1" connect="1" arrows="1" fold="1" pageScale="1" pageWidth="850" pageHeight="1100" math="0" shadow="0">
      <root>
        <mxCell id="0" />
        <mxCell id="1" parent="0" />
        <mxCell id="dic6qGGqfE8byk4KOgq2-11" value="&amp;lt;&amp;lt;Abstract&amp;gt;&amp;gt;&lt;br&gt;TiposDePizza" style="swimlane;fontStyle=1;align=center;verticalAlign=top;childLayout=stackLayout;horizontal=1;startSize=60;horizontalStack=0;resizeParent=1;resizeParentMax=0;resizeLast=0;collapsible=1;marginBottom=0;whiteSpace=wrap;html=1;fontSize=16;labelBackgroundColor=none;" vertex="1" parent="1">
          <mxGeometry x="482" y="168" width="273" height="203" as="geometry" />
        </mxCell>
        <mxCell id="dic6qGGqfE8byk4KOgq2-35" value="-nombre: String" style="text;strokeColor=none;fillColor=none;align=left;verticalAlign=top;spacingLeft=4;spacingRight=4;overflow=hidden;rotatable=0;points=[[0,0.5],[1,0.5]];portConstraint=eastwest;whiteSpace=wrap;html=1;fontSize=16;labelBackgroundColor=none;" vertex="1" parent="dic6qGGqfE8byk4KOgq2-11">
          <mxGeometry y="60" width="273" height="26" as="geometry" />
        </mxCell>
        <mxCell id="dic6qGGqfE8byk4KOgq2-60" value="-descripcion:String" style="text;strokeColor=none;fillColor=none;align=left;verticalAlign=top;spacingLeft=4;spacingRight=4;overflow=hidden;rotatable=0;points=[[0,0.5],[1,0.5]];portConstraint=eastwest;whiteSpace=wrap;html=1;fontSize=16;labelBackgroundColor=none;" vertex="1" parent="dic6qGGqfE8byk4KOgq2-11">
          <mxGeometry y="86" width="273" height="26" as="geometry" />
        </mxCell>
        <mxCell id="dic6qGGqfE8byk4KOgq2-14" value="" style="line;strokeWidth=1;fillColor=none;align=left;verticalAlign=middle;spacingTop=-1;spacingLeft=3;spacingRight=3;rotatable=0;labelPosition=right;points=[];portConstraint=eastwest;fontSize=16;labelBackgroundColor=none;" vertex="1" parent="dic6qGGqfE8byk4KOgq2-11">
          <mxGeometry y="112" width="273" height="9" as="geometry" />
        </mxCell>
        <mxCell id="dic6qGGqfE8byk4KOgq2-12" value="+TiposDePizza(String, String)" style="text;strokeColor=none;fillColor=none;align=left;verticalAlign=top;spacingLeft=4;spacingRight=4;overflow=hidden;rotatable=0;points=[[0,0.5],[1,0.5]];portConstraint=eastwest;whiteSpace=wrap;html=1;fontSize=16;labelBackgroundColor=none;" vertex="1" parent="dic6qGGqfE8byk4KOgq2-11">
          <mxGeometry y="121" width="273" height="41" as="geometry" />
        </mxCell>
        <mxCell id="dic6qGGqfE8byk4KOgq2-82" value="+abstract calcularPrecio()" style="text;strokeColor=none;fillColor=none;align=left;verticalAlign=top;spacingLeft=4;spacingRight=4;overflow=hidden;rotatable=0;points=[[0,0.5],[1,0.5]];portConstraint=eastwest;whiteSpace=wrap;html=1;fontSize=16;labelBackgroundColor=none;" vertex="1" parent="dic6qGGqfE8byk4KOgq2-11">
          <mxGeometry y="162" width="273" height="41" as="geometry" />
        </mxCell>
        <mxCell id="dic6qGGqfE8byk4KOgq2-18" style="edgeStyle=none;curved=1;rounded=0;orthogonalLoop=1;jettySize=auto;html=1;fontSize=12;startSize=8;endSize=8;labelBackgroundColor=none;fontColor=default;entryX=0;entryY=0.5;entryDx=0;entryDy=0;" edge="1" parent="1" source="dic6qGGqfE8byk4KOgq2-19">
          <mxGeometry relative="1" as="geometry">
            <mxPoint x="482" y="335" as="targetPoint" />
          </mxGeometry>
        </mxCell>
        <mxCell id="dic6qGGqfE8byk4KOgq2-19" value="Pizzeria" style="swimlane;fontStyle=1;align=center;verticalAlign=top;childLayout=stackLayout;horizontal=1;startSize=26;horizontalStack=0;resizeParent=1;resizeParentMax=0;resizeLast=0;collapsible=1;marginBottom=0;whiteSpace=wrap;html=1;fontSize=16;labelBackgroundColor=none;" vertex="1" parent="1">
          <mxGeometry x="97" y="270" width="209" height="190" as="geometry" />
        </mxCell>
        <mxCell id="dic6qGGqfE8byk4KOgq2-20" value="-nombre: String" style="text;strokeColor=none;fillColor=none;align=left;verticalAlign=top;spacingLeft=4;spacingRight=4;overflow=hidden;rotatable=0;points=[[0,0.5],[1,0.5]];portConstraint=eastwest;whiteSpace=wrap;html=1;fontSize=16;labelBackgroundColor=none;" vertex="1" parent="dic6qGGqfE8byk4KOgq2-19">
          <mxGeometry y="26" width="209" height="26" as="geometry" />
        </mxCell>
        <mxCell id="dic6qGGqfE8byk4KOgq2-21" value="-pizzas:List&amp;lt;Pizza&amp;gt;" style="text;strokeColor=none;fillColor=none;align=left;verticalAlign=top;spacingLeft=4;spacingRight=4;overflow=hidden;rotatable=0;points=[[0,0.5],[1,0.5]];portConstraint=eastwest;whiteSpace=wrap;html=1;fontSize=16;labelBackgroundColor=none;" vertex="1" parent="dic6qGGqfE8byk4KOgq2-19">
          <mxGeometry y="52" width="209" height="26" as="geometry" />
        </mxCell>
        <mxCell id="dic6qGGqfE8byk4KOgq2-22" value="" style="line;strokeWidth=1;fillColor=none;align=left;verticalAlign=middle;spacingTop=-1;spacingLeft=3;spacingRight=3;rotatable=0;labelPosition=right;points=[];portConstraint=eastwest;fontSize=16;labelBackgroundColor=none;" vertex="1" parent="dic6qGGqfE8byk4KOgq2-19">
          <mxGeometry y="78" width="209" height="8" as="geometry" />
        </mxCell>
        <mxCell id="dic6qGGqfE8byk4KOgq2-23" value="+Pizzeria(String)" style="text;strokeColor=none;fillColor=none;align=left;verticalAlign=top;spacingLeft=4;spacingRight=4;overflow=hidden;rotatable=0;points=[[0,0.5],[1,0.5]];portConstraint=eastwest;whiteSpace=wrap;html=1;fontSize=16;labelBackgroundColor=none;" vertex="1" parent="dic6qGGqfE8byk4KOgq2-19">
          <mxGeometry y="86" width="209" height="26" as="geometry" />
        </mxCell>
        <mxCell id="dic6qGGqfE8byk4KOgq2-72" value="+agregarPizzas():void" style="text;strokeColor=none;fillColor=none;align=left;verticalAlign=top;spacingLeft=4;spacingRight=4;overflow=hidden;rotatable=0;points=[[0,0.5],[1,0.5]];portConstraint=eastwest;whiteSpace=wrap;html=1;fontSize=16;labelBackgroundColor=none;" vertex="1" parent="dic6qGGqfE8byk4KOgq2-19">
          <mxGeometry y="112" width="209" height="26" as="geometry" />
        </mxCell>
        <mxCell id="dic6qGGqfE8byk4KOgq2-73" value="+quitarPizzas():void" style="text;strokeColor=none;fillColor=none;align=left;verticalAlign=top;spacingLeft=4;spacingRight=4;overflow=hidden;rotatable=0;points=[[0,0.5],[1,0.5]];portConstraint=eastwest;whiteSpace=wrap;html=1;fontSize=16;labelBackgroundColor=none;" vertex="1" parent="dic6qGGqfE8byk4KOgq2-19">
          <mxGeometry y="138" width="209" height="26" as="geometry" />
        </mxCell>
        <mxCell id="dic6qGGqfE8byk4KOgq2-56" value="+mostrarPizzas():void" style="text;strokeColor=none;fillColor=none;align=left;verticalAlign=top;spacingLeft=4;spacingRight=4;overflow=hidden;rotatable=0;points=[[0,0.5],[1,0.5]];portConstraint=eastwest;whiteSpace=wrap;html=1;fontSize=16;labelBackgroundColor=none;" vertex="1" parent="dic6qGGqfE8byk4KOgq2-19">
          <mxGeometry y="164" width="209" height="26" as="geometry" />
        </mxCell>
        <mxCell id="dic6qGGqfE8byk4KOgq2-69" style="edgeStyle=orthogonalEdgeStyle;rounded=0;orthogonalLoop=1;jettySize=auto;html=1;endArrow=block;endFill=0;" edge="1" parent="1">
          <mxGeometry relative="1" as="geometry">
            <mxPoint x="410.57142857142867" y="511" as="sourcePoint" />
            <mxPoint x="620.0000000000002" y="371" as="targetPoint" />
            <Array as="points">
              <mxPoint x="411" y="450" />
              <mxPoint x="620" y="450" />
            </Array>
          </mxGeometry>
        </mxCell>
        <mxCell id="dic6qGGqfE8byk4KOgq2-27" value="Simple" style="swimlane;fontStyle=1;align=center;verticalAlign=top;childLayout=stackLayout;horizontal=1;startSize=26;horizontalStack=0;resizeParent=1;resizeParentMax=0;resizeLast=0;collapsible=1;marginBottom=0;whiteSpace=wrap;html=1;fontSize=16;labelBackgroundColor=none;" vertex="1" parent="1">
          <mxGeometry x="270" y="510" width="281" height="153" as="geometry" />
        </mxCell>
        <mxCell id="dic6qGGqfE8byk4KOgq2-28" value="-precioBase: Double" style="text;strokeColor=none;fillColor=none;align=left;verticalAlign=top;spacingLeft=4;spacingRight=4;overflow=hidden;rotatable=0;points=[[0,0.5],[1,0.5]];portConstraint=eastwest;whiteSpace=wrap;html=1;fontSize=16;labelBackgroundColor=none;" vertex="1" parent="dic6qGGqfE8byk4KOgq2-27">
          <mxGeometry y="26" width="281" height="26" as="geometry" />
        </mxCell>
        <mxCell id="dic6qGGqfE8byk4KOgq2-29" value="-estaPromocion: boolean" style="text;strokeColor=none;fillColor=none;align=left;verticalAlign=top;spacingLeft=4;spacingRight=4;overflow=hidden;rotatable=0;points=[[0,0.5],[1,0.5]];portConstraint=eastwest;whiteSpace=wrap;html=1;fontSize=16;labelBackgroundColor=none;" vertex="1" parent="dic6qGGqfE8byk4KOgq2-27">
          <mxGeometry y="52" width="281" height="26" as="geometry" />
        </mxCell>
        <mxCell id="dic6qGGqfE8byk4KOgq2-30" value="" style="line;strokeWidth=1;fillColor=none;align=left;verticalAlign=middle;spacingTop=-1;spacingLeft=3;spacingRight=3;rotatable=0;labelPosition=right;points=[];portConstraint=eastwest;fontSize=16;labelBackgroundColor=none;" vertex="1" parent="dic6qGGqfE8byk4KOgq2-27">
          <mxGeometry y="78" width="281" height="8" as="geometry" />
        </mxCell>
        <mxCell id="dic6qGGqfE8byk4KOgq2-31" value="+calcularPrecio():Double" style="text;strokeColor=none;fillColor=none;align=left;verticalAlign=top;spacingLeft=4;spacingRight=4;overflow=hidden;rotatable=0;points=[[0,0.5],[1,0.5]];portConstraint=eastwest;whiteSpace=wrap;html=1;fontSize=16;labelBackgroundColor=none;" vertex="1" parent="dic6qGGqfE8byk4KOgq2-27">
          <mxGeometry y="86" width="281" height="26" as="geometry" />
        </mxCell>
        <mxCell id="dic6qGGqfE8byk4KOgq2-74" value="+TiposDePizza(String, String)" style="text;strokeColor=none;fillColor=none;align=left;verticalAlign=top;spacingLeft=4;spacingRight=4;overflow=hidden;rotatable=0;points=[[0,0.5],[1,0.5]];portConstraint=eastwest;whiteSpace=wrap;html=1;fontSize=16;labelBackgroundColor=none;" vertex="1" parent="dic6qGGqfE8byk4KOgq2-27">
          <mxGeometry y="112" width="281" height="41" as="geometry" />
        </mxCell>
        <mxCell id="dic6qGGqfE8byk4KOgq2-70" style="edgeStyle=orthogonalEdgeStyle;rounded=0;orthogonalLoop=1;jettySize=auto;html=1;endArrow=block;endFill=0;" edge="1" parent="1" source="dic6qGGqfE8byk4KOgq2-34">
          <mxGeometry relative="1" as="geometry">
            <mxPoint x="619" y="370" as="targetPoint" />
            <Array as="points">
              <mxPoint x="890" y="450" />
              <mxPoint x="619" y="450" />
            </Array>
          </mxGeometry>
        </mxCell>
        <mxCell id="dic6qGGqfE8byk4KOgq2-34" value="Combinada" style="swimlane;fontStyle=1;align=center;verticalAlign=top;childLayout=stackLayout;horizontal=1;startSize=26;horizontalStack=0;resizeParent=1;resizeParentMax=0;resizeLast=0;collapsible=1;marginBottom=0;whiteSpace=wrap;html=1;fontSize=16;labelBackgroundColor=none;" vertex="1" parent="1">
          <mxGeometry x="718" y="507" width="262" height="127" as="geometry" />
        </mxCell>
        <mxCell id="dic6qGGqfE8byk4KOgq2-37" value="-pizzas: List&amp;lt;pizza&amp;gt;" style="text;strokeColor=none;fillColor=none;align=left;verticalAlign=top;spacingLeft=4;spacingRight=4;overflow=hidden;rotatable=0;points=[[0,0.5],[1,0.5]];portConstraint=eastwest;whiteSpace=wrap;html=1;fontSize=16;labelBackgroundColor=none;" vertex="1" parent="dic6qGGqfE8byk4KOgq2-34">
          <mxGeometry y="26" width="262" height="26" as="geometry" />
        </mxCell>
        <mxCell id="dic6qGGqfE8byk4KOgq2-38" value="" style="line;strokeWidth=1;fillColor=none;align=left;verticalAlign=middle;spacingTop=-1;spacingLeft=3;spacingRight=3;rotatable=0;labelPosition=right;points=[];portConstraint=eastwest;fontSize=16;labelBackgroundColor=none;" vertex="1" parent="dic6qGGqfE8byk4KOgq2-34">
          <mxGeometry y="52" width="262" height="8" as="geometry" />
        </mxCell>
        <mxCell id="dic6qGGqfE8byk4KOgq2-39" value="+calcularPrecio():Double" style="text;strokeColor=none;fillColor=none;align=left;verticalAlign=top;spacingLeft=4;spacingRight=4;overflow=hidden;rotatable=0;points=[[0,0.5],[1,0.5]];portConstraint=eastwest;whiteSpace=wrap;html=1;fontSize=16;labelBackgroundColor=none;" vertex="1" parent="dic6qGGqfE8byk4KOgq2-34">
          <mxGeometry y="60" width="262" height="26" as="geometry" />
        </mxCell>
        <mxCell id="dic6qGGqfE8byk4KOgq2-75" value="+TiposDePizza(String, String)" style="text;strokeColor=none;fillColor=none;align=left;verticalAlign=top;spacingLeft=4;spacingRight=4;overflow=hidden;rotatable=0;points=[[0,0.5],[1,0.5]];portConstraint=eastwest;whiteSpace=wrap;html=1;fontSize=16;labelBackgroundColor=none;" vertex="1" parent="dic6qGGqfE8byk4KOgq2-34">
          <mxGeometry y="86" width="262" height="41" as="geometry" />
        </mxCell>
        <mxCell id="dic6qGGqfE8byk4KOgq2-43" value="PizzaFactory" style="swimlane;fontStyle=1;align=center;verticalAlign=top;childLayout=stackLayout;horizontal=1;startSize=26;horizontalStack=0;resizeParent=1;resizeParentMax=0;resizeLast=0;collapsible=1;marginBottom=0;whiteSpace=wrap;html=1;" vertex="1" parent="1">
          <mxGeometry x="970" y="40" width="250" height="138" as="geometry" />
        </mxCell>
        <mxCell id="dic6qGGqfE8byk4KOgq2-44" value="&lt;font style=&quot;font-size: 14px;&quot;&gt;&lt;b&gt;-&lt;u&gt;instance: PizzaFactory&lt;/u&gt;&lt;/b&gt;&lt;/font&gt;" style="text;strokeColor=none;fillColor=none;align=left;verticalAlign=top;spacingLeft=4;spacingRight=4;overflow=hidden;rotatable=0;points=[[0,0.5],[1,0.5]];portConstraint=eastwest;whiteSpace=wrap;html=1;" vertex="1" parent="dic6qGGqfE8byk4KOgq2-43">
          <mxGeometry y="26" width="250" height="26" as="geometry" />
        </mxCell>
        <mxCell id="dic6qGGqfE8byk4KOgq2-45" value="" style="line;strokeWidth=1;fillColor=none;align=left;verticalAlign=middle;spacingTop=-1;spacingLeft=3;spacingRight=3;rotatable=0;labelPosition=right;points=[];portConstraint=eastwest;strokeColor=inherit;" vertex="1" parent="dic6qGGqfE8byk4KOgq2-43">
          <mxGeometry y="52" width="250" height="8" as="geometry" />
        </mxCell>
        <mxCell id="dic6qGGqfE8byk4KOgq2-76" value="&lt;font style=&quot;font-size: 14px;&quot;&gt;-tiposDePizzaFactory()&lt;/font&gt;" style="text;strokeColor=none;fillColor=none;align=left;verticalAlign=top;spacingLeft=4;spacingRight=4;overflow=hidden;rotatable=0;points=[[0,0.5],[1,0.5]];portConstraint=eastwest;whiteSpace=wrap;html=1;" vertex="1" parent="dic6qGGqfE8byk4KOgq2-43">
          <mxGeometry y="60" width="250" height="26" as="geometry" />
        </mxCell>
        <mxCell id="dic6qGGqfE8byk4KOgq2-46" value="&lt;font style=&quot;font-size: 14px;&quot;&gt;&lt;b&gt;+&lt;u&gt;getinstance():PizzaFactory&lt;/u&gt;&lt;/b&gt;&lt;/font&gt;" style="text;strokeColor=none;fillColor=none;align=left;verticalAlign=top;spacingLeft=4;spacingRight=4;overflow=hidden;rotatable=0;points=[[0,0.5],[1,0.5]];portConstraint=eastwest;whiteSpace=wrap;html=1;" vertex="1" parent="dic6qGGqfE8byk4KOgq2-43">
          <mxGeometry y="86" width="250" height="26" as="geometry" />
        </mxCell>
        <mxCell id="dic6qGGqfE8byk4KOgq2-55" value="&lt;font style=&quot;font-size: 14px;&quot;&gt;+crearPizza(String):Pizza&lt;/font&gt;" style="text;strokeColor=none;fillColor=none;align=left;verticalAlign=top;spacingLeft=4;spacingRight=4;overflow=hidden;rotatable=0;points=[[0,0.5],[1,0.5]];portConstraint=eastwest;whiteSpace=wrap;html=1;" vertex="1" parent="dic6qGGqfE8byk4KOgq2-43">
          <mxGeometry y="112" width="250" height="26" as="geometry" />
        </mxCell>
        <mxCell id="dic6qGGqfE8byk4KOgq2-67" value="1" style="text;align=center;fontStyle=1;verticalAlign=middle;spacingLeft=3;spacingRight=3;strokeColor=none;rotatable=0;points=[[0,0.5],[1,0.5]];portConstraint=eastwest;html=1;" vertex="1" parent="1">
          <mxGeometry x="280" y="330" width="80" height="26" as="geometry" />
        </mxCell>
        <mxCell id="dic6qGGqfE8byk4KOgq2-68" value="n" style="text;align=center;fontStyle=1;verticalAlign=middle;spacingLeft=3;spacingRight=3;strokeColor=none;rotatable=0;points=[[0,0.5],[1,0.5]];portConstraint=eastwest;html=1;" vertex="1" parent="1">
          <mxGeometry x="402" y="300" width="108" height="40" as="geometry" />
        </mxCell>
        <mxCell id="dic6qGGqfE8byk4KOgq2-71" value="1" style="endArrow=open;html=1;endSize=12;startArrow=diamondThin;startSize=14;startFill=1;edgeStyle=orthogonalEdgeStyle;align=left;verticalAlign=bottom;rounded=0;" edge="1" parent="1" source="dic6qGGqfE8byk4KOgq2-34" target="dic6qGGqfE8byk4KOgq2-11">
          <mxGeometry x="-1" y="3" relative="1" as="geometry">
            <mxPoint x="980" y="562.44" as="sourcePoint" />
            <mxPoint x="1140" y="562.44" as="targetPoint" />
            <Array as="points">
              <mxPoint x="1030" y="563" />
              <mxPoint x="1030" y="340" />
            </Array>
          </mxGeometry>
        </mxCell>
        <mxCell id="dic6qGGqfE8byk4KOgq2-79" value="Use" style="endArrow=open;endSize=12;dashed=1;html=1;rounded=0;" edge="1" parent="1" source="dic6qGGqfE8byk4KOgq2-43" target="dic6qGGqfE8byk4KOgq2-11">
          <mxGeometry width="160" relative="1" as="geometry">
            <mxPoint x="1090.5" y="188" as="sourcePoint" />
            <mxPoint x="1100.5" y="250" as="targetPoint" />
          </mxGeometry>
        </mxCell>
      </root>
    </mxGraphModel>
  </diagram>
</mxfile>
